<?xml version="1.0" encoding="UTF-8" standalone="no"?>
<!-- Created with Inkscape (http://www.inkscape.org/) -->

<svg
   xmlns:dc="http://purl.org/dc/elements/1.1/"
   xmlns:cc="http://creativecommons.org/ns#"
   xmlns:rdf="http://www.w3.org/1999/02/22-rdf-syntax-ns#"
   xmlns:svg="http://www.w3.org/2000/svg"
   xmlns="http://www.w3.org/2000/svg"
   xmlns:sodipodi="http://sodipodi.sourceforge.net/DTD/sodipodi-0.dtd"
   xmlns:inkscape="http://www.inkscape.org/namespaces/inkscape"
   width="210mm"
   height="297mm"
   viewBox="0 0 210 297"
   version="1.1"
   id="svg8"
   inkscape:version="0.92.1 r15371"
   sodipodi:docname="rocking-giraffe-blueprint.svg"
   inkscape:export-filename="/home/asokero/Kuvat/kirahvi-taplat.png"
   inkscape:export-xdpi="300"
   inkscape:export-ydpi="300">
  <defs
     id="defs2" />
  <sodipodi:namedview
     id="base"
     pagecolor="#ffffff"
     bordercolor="#666666"
     borderopacity="1.0"
     inkscape:pageopacity="0.0"
     inkscape:pageshadow="2"
     inkscape:zoom="0.22627418"
     inkscape:cx="1539.5014"
     inkscape:cy="2003.0411"
     inkscape:document-units="mm"
     inkscape:current-layer="layer1"
     showgrid="false"
     inkscape:window-width="1600"
     inkscape:window-height="831"
     inkscape:window-x="0"
     inkscape:window-y="0"
     inkscape:window-maximized="1"
     inkscape:measure-start="2512.3,2330.01"
     inkscape:measure-end="2557.71,2354.7" />
  <metadata
     id="metadata5">
    <rdf:RDF>
      <cc:Work
         rdf:about="">
        <dc:format>image/svg+xml</dc:format>
        <dc:type
           rdf:resource="http://purl.org/dc/dcmitype/StillImage" />
        <dc:title />
      </cc:Work>
    </rdf:RDF>
  </metadata>
  <g
     inkscape:label="Taso 1"
     inkscape:groupmode="layer"
     id="layer1">
    <g
       style="fill:#f4e3d7"
       id="g4517-6-7"
       transform="matrix(-2.0008027,0,0,1.8278353,843.78377,-1057.4144)">
      <path
         transform="matrix(-1,0,0,1,151.00945,2.7223814e-7)"
         inkscape:connector-curvature="0"
         id="path4507-7-5"
         d="m 81.38711,572.34436 v -34.93542 h 0.02987 -17.773424 c 0,0 -59.099974,2.2718 -146.764384,-27.39512 0,0 -12.56166,-9.75534 -21.381562,1.73725 -8.81989,11.49259 -5.07812,19.10977 -5.07812,19.10977 0,0 9.08717,22.71791 26.593322,5.47903 0,0 3.74177,-4.00905 9.48807,0 0,0 68.518669,40.91817 154.886228,36.00449 z"
         style="fill:#f4e3d7;fill-rule:evenodd;stroke:#000000;stroke-width:0.26458332px;stroke-linecap:butt;stroke-linejoin:miter;stroke-opacity:1" />
      <path
         inkscape:connector-curvature="0"
         id="path4507-6-5-3"
         d="m 81.38711,572.34436 v -34.93542 h 0.02987 -17.773424 c 0,0 -59.099974,2.2718 -146.764384,-27.39512 0,0 -12.56166,-9.75534 -21.381562,1.73725 -8.81989,11.49259 -5.07812,19.10977 -5.07812,19.10977 0,0 9.08717,22.71791 26.593322,5.47903 0,0 3.74177,-4.00905 9.48807,0 0,0 68.518669,40.91817 154.886228,36.00449 z"
         style="fill:#f4e3d7;fill-rule:evenodd;stroke:#000000;stroke-width:0.26458332px;stroke-linecap:butt;stroke-linejoin:miter;stroke-opacity:1" />
    </g>
    <path
       style="fill:#f4e3d7;fill-opacity:1;fill-rule:evenodd;stroke:#000000;stroke-width:0.78500491px;stroke-linecap:butt;stroke-linejoin:miter;stroke-opacity:1"
       d="m 884.61211,-72.511665 h -99.44257 c -2.82411,-33.755995 -25.73392,-68.330095 -55.40255,-86.215275 -19.91509,-19.21149 -58.67243,-13.91629 -74.32704,0.55845 -16.28799,15.06036 -28.15679,26.53702 -57.38369,85.35557 h -99.44257 c 0,0 93.46206,-172.47015 71.55695,-349.2853 -0.49744,-4.01529 0.4552,-10.01336 -0.75475,-13.96256 -1.02113,-3.3328 -4.20048,-4.61472 -4.83297,-8.00556"
       id="path4549-5-6"
       inkscape:connector-curvature="0"
       sodipodi:nodetypes="cccsccssc" />
    <g
       id="g4677"
       transform="matrix(1.0405206,0,0,1.0506508,123.74254,1.9506254)">
      <g
         id="g4680">
        <g
           id="g4796">
          <g
             id="g4802">
            <path
               sodipodi:nodetypes="cccccccccccccccccccccsccc"
               style="fill:#f4e3d7;fill-opacity:1;fill-rule:evenodd;stroke:#000000;stroke-width:0.75078887px;stroke-linecap:butt;stroke-linejoin:miter;stroke-opacity:1"
               d="m 418.4265,-424.92835 c 0,0 -8.27921,-6.24361 -19.88843,-0.12875 0,0 -6.44957,4.40272 -4.12773,20.30136 0,0 -23.9924,26.90538 -24.50837,49.89726 0,0 -4.12772,22.2581 -30.95794,24.70403 0,0 -23.21846,2.20135 -32.50584,-25.68241 0,0 2.83782,-66.5297 0.258,-73.62291 0,0 -0.77396,-36.44458 -42.56718,-43.53782 0,0 -22.70249,3.91351 -30.69996,-18.09999 0,0 6.44957,-39.6243 33.79575,-10.51756 0,0 8.25545,10.51756 25.02434,10.51756 0,0 25.5403,0.24458 12.12519,-15.65404 0,0 -0.77395,-4.15811 -10.5773,-10.51756 0,0 -13.15712,-6.35946 -25.5403,-9.29459 0,0 -18.0588,-14.92026 2.83781,-30.8189 0,0 14.18906,-9.78378 26.83022,7.09324 0,0 6.70755,24.70403 39.47137,29.35133 0,0 16.76889,-0.24459 25.79829,-6.35946 0,0 57.01421,-17.12161 103.45112,16.87702 0,0 43.34112,25.68241 55.98227,99.79453 0,0 11.1455,85.01957 8.82366,98.47227 0,0 -0.21536,7.74117 0.11948,14.90804 0.30938,6.62693 2.14224,12.32048 8.34185,16.67491 0,0 137.61073,-1.64314 140.19057,0.80279 0,0 35.10548,52.91423 51.18258,208.909983"
               id="path4551-6-2"
               inkscape:connector-curvature="0" />
          </g>
        </g>
      </g>
    </g>
    <path
       style="fill:#d38d5f;fill-rule:evenodd;stroke:#000000;stroke-width:0.39443856px;stroke-linecap:butt;stroke-linejoin:miter;stroke-opacity:1"
       d="m 660.30694,-287.37886 165.82027,-1.05251 c 0,0 54.85446,8.4201 78.31221,-33.15424 23.45753,-41.57432 -33.92315,-4.73628 -33.92315,-4.73628 0,0 -26.70582,5.78885 -39.69757,7.89388 -15.87908,-0.52631 -170.33876,-1.05258 -170.33876,-1.05258 z"
       id="path4748"
       inkscape:connector-curvature="0"
       sodipodi:nodetypes="ccccccc" />
    <rect
       style="opacity:1;fill:#f4e3d7;fill-opacity:1;stroke:#020000;stroke-width:0.55745256;stroke-miterlimit:4;stroke-dasharray:none;stroke-opacity:1"
       id="rect4583-2-2"
       width="99.442551"
       height="29.442547"
       x="499.14288"
       y="-72.81292"
       inkscape:export-xdpi="300"
       inkscape:export-ydpi="300"
       inkscape:export-filename="/home/asokero/heppa-30cm-print.png" />
    <path
       style="fill:none;fill-rule:evenodd;stroke:#000000;stroke-width:0.26458332px;stroke-linecap:butt;stroke-linejoin:miter;stroke-opacity:1"
       d="M 1154.7799,-323.49465 V -23.533462"
       id="path4530-3"
       inkscape:connector-curvature="0" />
    <ellipse
       style="opacity:1;fill:#ffffff;fill-opacity:1;stroke:#020000;stroke-width:2.63800001;stroke-miterlimit:4;stroke-dasharray:none;stroke-opacity:1"
       id="path4581-1-1"
       cx="616.54791"
       cy="-425.84821"
       rx="14.159799"
       ry="13.937323"
       inkscape:export-xdpi="300"
       inkscape:export-ydpi="300"
       inkscape:export-filename="/home/asokero/heppa-30cm-print.png" />
    <rect
       style="opacity:1;fill:#d38d5f;fill-opacity:1;stroke:#020000;stroke-width:0.80007452;stroke-miterlimit:4;stroke-dasharray:none;stroke-opacity:1"
       id="rect4600-0-0"
       width="29.199924"
       height="134.19992"
       x="805.20776"
       y="-206.71739"
       inkscape:export-xdpi="300"
       inkscape:export-ydpi="300"
       inkscape:export-filename="/home/asokero/heppa-30cm-print.png" />
    <g
       id="g4709"
       transform="translate(140.62602,-6.9453127)">
      <ellipse
         inkscape:export-filename="/home/asokero/heppa-30cm-print.png"
         inkscape:export-ydpi="300"
         inkscape:export-xdpi="300"
         ry="8.1831751"
         rx="8.3138008"
         cy="-348.04822"
         cx="482.26508"
         id="path4581-1-1-8-9"
         style="opacity:1;fill:#d38d5f;fill-opacity:1;stroke:#020000;stroke-width:0.35228473;stroke-miterlimit:4;stroke-dasharray:none;stroke-opacity:1" />
      <ellipse
         inkscape:export-filename="/home/asokero/heppa-30cm-print.png"
         inkscape:export-ydpi="300"
         inkscape:export-xdpi="300"
         ry="11.934158"
         rx="12.124659"
         cy="-268.2117"
         cx="512.94135"
         id="path4581-1-1-8-6"
         style="opacity:1;fill:#d38d5f;fill-opacity:1;stroke:#020000;stroke-width:0.51376408;stroke-miterlimit:4;stroke-dasharray:none;stroke-opacity:1" />
      <ellipse
         inkscape:export-filename="/home/asokero/heppa-30cm-print.png"
         inkscape:export-ydpi="300"
         inkscape:export-xdpi="300"
         ry="8.5001621"
         rx="8.6358471"
         cy="-301.53687"
         cx="481.42474"
         id="path4581-1-1-8-1"
         style="opacity:1;fill:#d38d5f;fill-opacity:1;stroke:#020000;stroke-width:0.36593097;stroke-miterlimit:4;stroke-dasharray:none;stroke-opacity:1" />
      <ellipse
         inkscape:export-filename="/home/asokero/heppa-30cm-print.png"
         inkscape:export-ydpi="300"
         inkscape:export-xdpi="300"
         ry="8.5001621"
         rx="8.6358471"
         cy="-253.59538"
         cx="546.32123"
         id="path4581-1-1-8-2"
         style="opacity:1;fill:#d38d5f;fill-opacity:1;stroke:#020000;stroke-width:0.36593097;stroke-miterlimit:4;stroke-dasharray:none;stroke-opacity:1" />
      <ellipse
         inkscape:export-filename="/home/asokero/heppa-30cm-print.png"
         inkscape:export-ydpi="300"
         inkscape:export-xdpi="300"
         ry="12.220325"
         rx="12.415393"
         cy="-235.76353"
         cx="581.75214"
         id="path4581-1-1-8-93"
         style="opacity:1;fill:#d38d5f;fill-opacity:1;stroke:#020000;stroke-width:0.52608347;stroke-miterlimit:4;stroke-dasharray:none;stroke-opacity:1" />
      <ellipse
         inkscape:export-filename="/home/asokero/heppa-30cm-print.png"
         inkscape:export-ydpi="300"
         inkscape:export-xdpi="300"
         ry="8.5001621"
         rx="8.6358471"
         cy="-263.53439"
         cx="603.03265"
         id="path4581-1-1-8-19"
         style="opacity:1;fill:#d38d5f;fill-opacity:1;stroke:#020000;stroke-width:0.36593097;stroke-miterlimit:4;stroke-dasharray:none;stroke-opacity:1" />
      <ellipse
         inkscape:export-filename="/home/asokero/heppa-30cm-print.png"
         inkscape:export-ydpi="300"
         inkscape:export-xdpi="300"
         ry="11.036033"
         rx="11.212197"
         cy="-253.84727"
         cx="641.32709"
         id="path4581-1-1-8-4"
         style="opacity:1;fill:#d38d5f;fill-opacity:1;stroke:#020000;stroke-width:0.47509992;stroke-miterlimit:4;stroke-dasharray:none;stroke-opacity:1" />
      <ellipse
         inkscape:export-filename="/home/asokero/heppa-30cm-print.png"
         inkscape:export-ydpi="300"
         inkscape:export-xdpi="300"
         ry="15.081987"
         rx="15.322736"
         cy="-388.35764"
         cx="494.68427"
         id="path4581-1-1-8-45"
         style="opacity:1;fill:#d38d5f;fill-opacity:1;stroke:#020000;stroke-width:0.64927781;stroke-miterlimit:4;stroke-dasharray:none;stroke-opacity:1" />
      <ellipse
         inkscape:export-filename="/home/asokero/heppa-30cm-print.png"
         inkscape:export-ydpi="300"
         inkscape:export-xdpi="300"
         ry="9.930994"
         rx="10.089519"
         cy="-467.28577"
         cx="472.92474"
         id="path4581-1-1-8-0"
         style="opacity:1;fill:#d38d5f;fill-opacity:1;stroke:#020000;stroke-width:0.42752811;stroke-miterlimit:4;stroke-dasharray:none;stroke-opacity:1" />
      <ellipse
         inkscape:export-filename="/home/asokero/heppa-30cm-print.png"
         inkscape:export-ydpi="300"
         inkscape:export-xdpi="300"
         ry="11.819682"
         rx="12.008356"
         cy="-325.03986"
         cx="504.16229"
         id="path4581-1-1-8-36"
         style="opacity:1;fill:#d38d5f;fill-opacity:1;stroke:#020000;stroke-width:0.50883591;stroke-miterlimit:4;stroke-dasharray:none;stroke-opacity:1" />
      <ellipse
         inkscape:export-filename="/home/asokero/heppa-30cm-print.png"
         inkscape:export-ydpi="300"
         inkscape:export-xdpi="300"
         ry="13.364989"
         rx="13.57833"
         cy="-466.11646"
         cx="434.2829"
         id="path4581-1-1-8-10"
         style="opacity:1;fill:#d38d5f;fill-opacity:1;stroke:#020000;stroke-width:0.57536119;stroke-miterlimit:4;stroke-dasharray:none;stroke-opacity:1" />
      <ellipse
         inkscape:export-filename="/home/asokero/heppa-30cm-print.png"
         inkscape:export-ydpi="300"
         inkscape:export-xdpi="300"
         ry="11.075659"
         rx="11.252456"
         cy="-509.9653"
         cx="423.79535"
         id="path4581-1-1-8-63"
         style="opacity:1;fill:#d38d5f;fill-opacity:1;stroke:#020000;stroke-width:0.47680581;stroke-miterlimit:4;stroke-dasharray:none;stroke-opacity:1" />
      <ellipse
         inkscape:export-filename="/home/asokero/heppa-30cm-print.png"
         inkscape:export-ydpi="300"
         inkscape:export-xdpi="300"
         ry="8.5001621"
         rx="8.6358471"
         cy="-497.39529"
         cx="390.21918"
         id="path4581-1-1-8-20"
         style="opacity:1;fill:#d38d5f;fill-opacity:1;stroke:#020000;stroke-width:0.36593097;stroke-miterlimit:4;stroke-dasharray:none;stroke-opacity:1" />
    </g>
    <rect
       style="opacity:1;fill:#d38d5f;fill-opacity:1;stroke:#020000;stroke-width:0.80007452;stroke-miterlimit:4;stroke-dasharray:none;stroke-opacity:1"
       id="rect4600-0-0-6"
       width="29.199924"
       height="134.19992"
       x="558.79224"
       y="-206.71996"
       inkscape:export-xdpi="300"
       inkscape:export-ydpi="300"
       inkscape:export-filename="/home/asokero/heppa-30cm-print.png" />
    <rect
       style="opacity:1;fill:#f4e3d7;fill-opacity:1;stroke:#020000;stroke-width:0.55745256;stroke-miterlimit:4;stroke-dasharray:none;stroke-opacity:1"
       id="rect4583-2-2-1"
       width="99.442551"
       height="29.442547"
       x="785.16956"
       y="-72.511665"
       inkscape:export-xdpi="300"
       inkscape:export-ydpi="300"
       inkscape:export-filename="/home/asokero/heppa-30cm-print.png" />
    <g
       id="g4510"
       transform="matrix(1.6387614,0,0,1.5305232,180.04561,-875.54667)" />
    <path
       style="fill:none;fill-rule:evenodd;stroke:#000000;stroke-width:5.26499987;stroke-linecap:butt;stroke-linejoin:miter;stroke-miterlimit:4;stroke-dasharray:none;stroke-opacity:1"
       d="M -426.84881,-7.5241869 H 1088.6765"
       id="path4519"
       inkscape:connector-curvature="0" />
    <path
       style="fill:none;fill-rule:evenodd;stroke:#000000;stroke-width:5.26499987;stroke-linecap:butt;stroke-linejoin:miter;stroke-miterlimit:4;stroke-dasharray:none;stroke-opacity:1"
       d="M -477.83893,-565.26901 H 1037.6864"
       id="path4519-3"
       inkscape:connector-curvature="0" />
    <rect
       style="opacity:1;fill:#f4e3d7;fill-opacity:1;stroke:#020000;stroke-width:0.68872154;stroke-miterlimit:4;stroke-dasharray:none;stroke-opacity:1"
       id="rect4551"
       width="33.311279"
       height="490.50381"
       x="-55.364155"
       y="-559.99591" />
    <rect
       style="opacity:1;fill:#f4e3d7;fill-opacity:1;stroke:#020000;stroke-width:0.78594136;stroke-miterlimit:4;stroke-dasharray:none;stroke-opacity:1"
       id="rect4583-6"
       width="199.21407"
       height="29.21406"
       x="-138.79408"
       y="-69.736137" />
    <rect
       style="opacity:1;fill:#f4e8d7;fill-opacity:1;stroke:#020000;stroke-width:0.8194288;stroke-miterlimit:4;stroke-dasharray:none;stroke-opacity:1"
       id="rect4598"
       width="229.18057"
       height="24.381582"
       x="-153.23566"
       y="-436.01877"
       ry="7.4280038" />
    <rect
       style="opacity:1;fill:#f4e3d7;fill-opacity:1;stroke:#020000;stroke-width:0.87154108;stroke-miterlimit:4;stroke-dasharray:none;stroke-opacity:1"
       id="rect4639-3-5"
       width="39.12846"
       height="120.80276"
       x="60.980965"
       y="-127.8587"
       ry="9.5370588" />
    <path
       style="opacity:1;fill:#d38d5f;fill-opacity:1;stroke:#020000;stroke-width:0.7755571;stroke-miterlimit:4;stroke-dasharray:none;stroke-opacity:1"
       d="m 20.59805,-179.28276 -14.2218027,-17.08317 -15.3880156,-8.28816 v 0 l -12.7094547,0.47899 -0.123879,133.742704 H 57.275962 L 53.088975,-94.554358 46.71467,-121.14322 c -11.154367,-36.74927 -6.818866,-25.41997 -26.11662,-58.13954 z"
       id="rect4600-5-7-5-6"
       inkscape:connector-curvature="0"
       sodipodi:nodetypes="cccccccccc" />
    <rect
       style="opacity:1;fill:#d38d5f;fill-opacity:1;stroke:#020000;stroke-width:0.32262915;stroke-miterlimit:4;stroke-dasharray:none;stroke-opacity:1"
       id="rect4567-2"
       width="93.677368"
       height="21.727972"
       x="-86.148819"
       y="-295.75092" />
    <rect
       style="opacity:1;fill:#f4e3d7;fill-opacity:1;stroke:#020000;stroke-width:0.87154108;stroke-miterlimit:4;stroke-dasharray:none;stroke-opacity:1"
       id="rect4639-3-5-6"
       width="39.12846"
       height="120.80276"
       x="-178.60872"
       y="-130.56288"
       ry="9.5370588" />
    <path
       style="opacity:1;fill:#d38d5f;fill-opacity:1;stroke:#020000;stroke-width:0.7755571;stroke-miterlimit:4;stroke-dasharray:none;stroke-opacity:1"
       d="m -98.013112,-179.21547 14.221735,-17.08317 15.388022,-8.28816 v 0 l 12.709447,0.47899 0.123878,133.742704 h -79.12099 l 4.18699,-24.121952 6.37431,-26.588872 c 11.15436,-36.74927 6.81886,-25.41997 26.116608,-58.13954 z"
       id="rect4600-5-7-5-6-7"
       inkscape:connector-curvature="0"
       sodipodi:nodetypes="cccccccccc" />
  </g>
</svg>
